<?xml version="1.0" encoding="iso-8859-1"?>
<!-- Generator: Adobe Illustrator 18.1.1, SVG Export Plug-In . SVG Version: 6.00 Build 0)  -->
<svg version="1.1" id="Capa_1" xmlns="http://www.w3.org/2000/svg" xmlns:xlink="http://www.w3.org/1999/xlink" x="0px" y="0px"
	 viewBox="0 0 26.774 26.774" style="enable-background:new 0 0 26.774 26.774;" xml:space="preserve">
<g>
	<path fill="#ffffff" stroke="current" d="M26.396,13.917l-9.979,8.254c0,0-1.186,1.255-1.186-0.103c0-1.364,0-4.654,0-4.654s-0.801,0-2.026,0
		c-3.51,0-9.899,0-12.498,0c0,0-0.707,0.183-0.707-0.89c0-1.071,0-5.779,0-6.547c0-0.765,0.593-0.746,0.593-0.746
		c2.526,0,9.129,0,12.522,0c1.103,0,1.819,0,1.819,0s0-2.64,0-4.299c0-1.656,1.239-0.405,1.239-0.405s9.327,7.025,10.304,8.002
		C27.189,13.238,26.396,13.917,26.396,13.917z"/>
	<g>
	</g>
	<g>
	</g>
	<g>
	</g>
	<g>
	</g>
	<g>
	</g>
	<g>
	</g>
	<g>
	</g>
	<g>
	</g>
	<g>
	</g>
	<g>
	</g>
	<g>
	</g>
	<g>
	</g>
	<g>
	</g>
	<g>
	</g>
	<g>
	</g>
</g>
<g>
</g>
<g>
</g>
<g>
</g>
<g>
</g>
<g>
</g>
<g>
</g>
<g>
</g>
<g>
</g>
<g>
</g>
<g>
</g>
<g>
</g>
<g>
</g>
<g>
</g>
<g>
</g>
<g>
</g>
</svg>
