<?xml version="1.0" encoding="iso-8859-1"?>
<!-- Generator: Adobe Illustrator 19.0.0, SVG Export Plug-In . SVG Version: 6.00 Build 0)  -->
<svg version="1.1" id="Capa_1" xmlns="http://www.w3.org/2000/svg" xmlns:xlink="http://www.w3.org/1999/xlink" x="0px" y="0px"
	 viewBox="0 0 332 332" style="enable-background:new 0 0 332 332;" xml:space="preserve">
<g>
	<g>
		<path d="M166,0C74.4,0,0,74.4,0,166s74.4,166,166,166s166-74.4,166-166S257.6,0,166,0z M166,317.6c-83.6,0-151.6-68-151.6-151.6
			S82.4,14.4,166,14.4s151.6,68,151.6,151.6S249.6,317.6,166,317.6z"/>
	</g>
</g>
<g>
	<g>
		<path d="M252.4,130H202V79.6c0-4-3.2-7.2-7.2-7.2h-57.6c-4,0-7.2,3.2-7.2,7.2V130H79.6c-4,0-7.2,3.2-7.2,7.2v57.6
			c0,4,3.2,7.2,7.2,7.2H130v50.4c0,4,3.2,7.2,7.2,7.2h57.6c4,0,7.2-3.2,7.2-7.2V202h50.4c4,0,7.2-3.2,7.2-7.2v-57.6
			C259.2,133.2,256,130,252.4,130z M245.6,187.6h-0.4h-50.4c-4,0-7.2,3.2-7.2,7.2v50.4h-43.2v-50.4c0-4-3.2-7.2-7.2-7.2H86.8v-43.2
			h50.4c4,0,7.2-3.2,7.2-7.2V86.8H188v50.4c0,4,3.2,7.2,7.2,7.2h50.4V187.6z"/>
	</g>
</g>
<g>
</g>
<g>
</g>
<g>
</g>
<g>
</g>
<g>
</g>
<g>
</g>
<g>
</g>
<g>
</g>
<g>
</g>
<g>
</g>
<g>
</g>
<g>
</g>
<g>
</g>
<g>
</g>
<g>
</g>
</svg>
