<svg id="Capa_1" enable-background="new 0 0 512.021 512.021" height="512" viewBox="0 0 512.021 512.021" width="512" xmlns="http://www.w3.org/2000/svg"><g><path d="m422.78 359.156c1.362-9.456.942-19.206-1.416-28.696-4.103-16.513.811-34.234 12.824-46.248 0 0 .005-.007.005-.008-.014-.014-.025-.026-.038-.039l.004.004c-.015-.016-.035-.036-.061-.062l.005.005c-.007-.007-.088-.089-.095-.097l.016.016c-.021-.021-.044-.045-.07-.071.007.007.014.014.021.022-.025-.025-5.438-5.534-20.807-21.175l-43.37 43.367-50.154-50.154 157.977-157.973c22.177-22.177 34.39-51.662 34.39-83.025v-15h-15c-31.363 0-60.848 12.213-83.025 34.39l-157.975 157.975-157.976-157.975c-22.177-22.177-51.662-34.391-83.025-34.391h-15v15c0 31.363 12.213 60.849 34.39 83.026l157.975 157.975-50.154 50.154-43.377-43.374c-.022.022-.04.041-.059.06.023-.023.041-.042.052-.054-.018.018-.209.213-.256.261.027-.028.059-.06.09-.092-.056.057-.095.097-.122.124.006-.006.012-.012.018-.018-.011.011-.023.023-.035.036.004-.004.008-.008.012-.012-.047.048-.049.049-.025.025-1.107 1.128-5.534 5.636-20.695 21.075 12.013 12.013 16.933 29.74 12.83 46.254-2.358 9.49-2.777 19.24-1.415 28.696l-76.049 76.045c-17.587 17.584-17.591 46.052 0 63.64 17.544 17.544 46.093 17.545 63.639 0l76.046-76.05c9.456 1.362 19.206.942 28.696-1.416 16.512-4.103 34.234.811 46.247 12.824l.202.198c-.001.001-.002.002-.003.003l.021-.021c-.001.001-.002.002-.003.003.006-.006.014-.015.024-.024-.001.001-.002.002-.003.003.053-.054.099-.101.136-.138-.027.028-.054.055-.079.08.027-.027.235-.239.238-.242-.002.002-.005.005-.008.008l.01-.01c-.001.001-.001.001-.002.002.004-.004 5.592-5.694 20.687-21.067l-43.182-43.182 50.154-50.154 50.154 50.154-43.182 43.182c-.007-.007-.008-.008 0 0 0 0 .125.127.17.173-.026-.026-.051-.052-.074-.076.028.028.062.063.104.105-.004-.005-.009-.009-.013-.014.029.029.053.054.073.074l.03.03c-.003-.003-.006-.006-.009-.009.013.013.023.024.032.032-.004-.004-.009-.009-.014-.014 1.065 1.084 5.446 5.543 20.728 21.095l.195-.191c12.012-12.012 29.729-16.927 46.247-12.824 9.49 2.358 19.24 2.778 28.696 1.416l76.046 76.05c17.545 17.544 46.092 17.545 63.638 0 17.587-17.585 17.591-46.052 0-63.64zm-159.792 53.843c.01.01.028.028.054.055-.023-.024-.042-.043-.054-.055zm-207.375-336.165c-12.538-12.538-20.798-28.213-24.047-45.257 17.043 3.249 32.718 11.509 45.256 24.047l157.975 157.976-21.209 21.209zm.011 400.782-.207.208c-5.863 5.651-15.23 5.586-21.014-.197-5.826-5.826-5.826-15.165-.205-21.003l66.692-66.692c2.746 4.177 5.92 8.104 9.513 11.696 3.592 3.592 7.519 6.767 11.696 9.513zm118.715-85.356c-15.485 3.847-31.458-.581-42.721-11.845-11.265-11.265-15.693-27.236-11.846-42.721.804-3.235 1.389-6.5 1.769-9.773l62.57 62.57c-3.273.381-6.537.966-9.772 1.769zm10.304-43.663-21.209-21.209 271.765-271.763c12.538-12.538 28.213-20.798 45.256-24.047-3.249 17.043-11.509 32.718-24.047 45.256zm92.581-50.154 21.209-21.209 50.154 50.154-21.209 21.209zm60.459 93.817c-3.235-.804-6.5-1.389-9.773-1.769l62.57-62.57c.38 3.273.966 6.537 1.769 9.772 3.847 15.486-.581 31.457-11.846 42.722s-27.236 15.693-42.72 11.845zm139.934 85.367c-5.78 5.78-15.142 5.849-21.006.203l-66.689-66.689c4.177-2.746 8.104-5.921 11.696-9.513s6.767-7.519 9.513-11.696l66.686 66.686c5.657 5.871 5.601 15.209-.2 21.009z"/><path d="m98.521 263.131c.004-.004.009-.009.013-.013-.005.005-.009.009-.013.013z"/><path d="m98.569 263.083c.005-.005.009-.009.013-.013-.004.004-.009.008-.013.013z"/><path d="m98.845 262.801c.006-.006.007-.007 0 0z"/><path d="m98.838 262.808c.003-.003.005-.005.007-.007-.002.002-.004.004-.007.007z"/><path d="m296.319 31.022h84.853v30h-84.853z" transform="matrix(.707 -.707 .707 .707 66.673 253.007)"/><path d="m158.276 3.595h30v84.853h-30z" transform="matrix(.707 -.707 .707 .707 18.209 136.004)"/><path d="m241.011.021h30v91h-30z"/></g></svg>