<?xml version="1.0" encoding="iso-8859-1"?>
<!-- Generator: Adobe Illustrator 19.0.0, SVG Export Plug-In . SVG Version: 6.00 Build 0)  -->
<svg version="1.1" id="Layer_1" xmlns="http://www.w3.org/2000/svg" xmlns:xlink="http://www.w3.org/1999/xlink" x="0px" y="0px"
	 viewBox="0 0 512.003 512.003" style="enable-background:new 0 0 512.003 512.003;" xml:space="preserve">
<g>
	<g>
		<g>
			<path d="M509.712,250.182l-119.467-128c-1.613-1.732-3.874-2.714-6.238-2.714H247.474c-3.456,0-6.571,2.082-7.885,5.265
				c-1.331,3.191-0.597,6.861,1.852,9.301l121.958,121.967L241.441,377.968c-2.449,2.441-3.183,6.11-1.852,9.301
				c1.314,3.183,4.429,5.265,7.885,5.265h136.533c2.364,0,4.625-0.981,6.238-2.714l119.467-128
				C512.767,258.544,512.767,253.459,509.712,250.182z"/>
			<path d="M270.778,250.182l-119.467-128c-1.613-1.732-3.874-2.714-6.238-2.714H8.541c-3.456,0-6.571,2.082-7.885,5.265
				c-1.331,3.191-0.597,6.861,1.852,9.301l121.958,121.967L2.508,377.968c-2.449,2.441-3.183,6.11-1.852,9.301
				c1.314,3.183,4.429,5.265,7.885,5.265h136.533c2.364,0,4.625-0.981,6.238-2.714l119.467-128
				C273.833,258.544,273.833,253.459,270.778,250.182z"/>
		</g>
	</g>
</g>
<g>
</g>
<g>
</g>
<g>
</g>
<g>
</g>
<g>
</g>
<g>
</g>
<g>
</g>
<g>
</g>
<g>
</g>
<g>
</g>
<g>
</g>
<g>
</g>
<g>
</g>
<g>
</g>
<g>
</g>
</svg>
