<svg id="Icons" height="512" viewBox="0 0 74 74" width="512" xmlns="http://www.w3.org/2000/svg"><path d="m64.37 32.5a1 1 0 0 1 -1-1v-5.5a1 1 0 0 1 2 0v5.5a1 1 0 0 1 -1 1z"/><path d="m37 72a.988.988 0 0 1 -.374-.073c-13.372-5.394-25.466-18.738-27.957-27.339a1.042 1.042 0 0 1 -.039-.278v-33.29a1 1 0 0 1 .323-.736 1.015 1.015 0 0 1 .76-.261c12.208 1.02 20.646-1.423 26.558-7.709a1 1 0 0 1 1.486.032c8.022 9.289 17.873 9.1 26.451 7.687a1 1 0 0 1 1.162.987v9.98a1 1 0 1 1 -2 0v-8.811c-8.594 1.279-18.248 1.089-26.4-7.726-6.125 6-14.545 8.441-26.337 7.636v32.067c2.422 8.084 13.746 20.509 26.367 25.753 11.374-4.734 21.837-15.529 25.441-23.338a1 1 0 0 1 1.817.838c-3.758 8.135-14.458 19.489-26.884 24.508a.988.988 0 0 1 -.374.073z"/><path d="m64.37 43a1 1 0 0 1 -1-1v-5.5a1 1 0 0 1 2 0v5.5a1 1 0 0 1 -1 1z"/><path d="m46.271 49.723a1 1 0 0 1 -.466-.115l-8.805-4.629-8.8 4.629a1 1 0 0 1 -1.451-1.054l1.682-9.8-7.131-6.948a1 1 0 0 1 .554-1.706l9.846-1.431 4.4-8.92a1.04 1.04 0 0 1 1.792 0l4.4 8.92 9.852 1.431a1 1 0 0 1 .554 1.706l-7.124 6.944 1.682 9.8a1 1 0 0 1 -.985 1.169zm-9.271-6.874a1 1 0 0 1 .466.115l7.476 3.936-1.427-8.326a1 1 0 0 1 .287-.885l6.049-5.9-8.359-1.215a1 1 0 0 1 -.753-.547l-3.739-7.576-3.739 7.575a1 1 0 0 1 -.753.547l-8.359 1.215 6.049 5.9a1 1 0 0 1 .287.885l-1.427 8.327 7.476-3.931a1 1 0 0 1 .466-.12z"/></svg>